<svg xmlns="http://www.w3.org/2000/svg" width="120" height="120" viewBox="0 0 120 120"><rect width="100%" height="100%" fill="#7dd3fc"/><path fill="#ffffff" d="M35.67 64.69h12.19L43.2 51.94q-.35-.84-.72-2.01t-.74-2.52q-.34 1.35-.71 2.53-.38 1.18-.72 2.06zm9.73-23.85 15.05 38.32h-5.51q-.93 0-1.51-.46-.59-.47-.88-1.16l-2.86-7.81H33.82l-2.86 7.81q-.22.61-.83 1.12-.61.5-1.51.5h-5.56l15.08-38.32zm26.15 0V56.9h1.67q1.01 0 1.67-.28.67-.28 1.14-.89l10.58-13.38q.66-.85 1.39-1.18t1.84-.33h6.15L83.08 56.77q-1.14 1.46-2.36 2.06.88.32 1.58.89t1.34 1.5l13.3 17.94h-6.28q-1.27 0-1.89-.36-.63-.36-1.05-1.04L76.88 63.6q-.5-.71-1.17-1-.66-.29-1.9-.29h-2.26v16.85h-7.12V40.84z"/></svg>