<svg xmlns="http://www.w3.org/2000/svg" width="800" height="600" viewBox="0 0 800 600"><rect width="100%" height="100%" fill="#38bdf8"/><path fill="#ffffff" d="m184.89 284.77-1.78 3.36q-.32.56-.67.81-.36.25-.89.25-.56 0-1.21-.41t-1.55-.91q-.9-.51-2.1-.92-1.21-.41-2.85-.41-1.49 0-2.6.36t-1.87.99q-.75.64-1.12 1.53-.37.88-.37 1.94 0 1.35.75 2.26.76.9 2 1.53 1.25.64 2.84 1.14 1.59.51 3.26 1.08t3.26 1.32q1.59.76 2.83 1.91 1.25 1.15 2 2.82.76 1.67.76 4.06 0 2.59-.89 4.86-.89 2.26-2.6 3.95-1.71 1.68-4.17 2.65-2.47.96-5.65.96-1.82 0-3.6-.35-1.78-.36-3.4-1.02-1.63-.67-3.07-1.59-1.43-.93-2.54-2.07l2.09-3.42q.27-.37.69-.62.43-.25.9-.25.67 0 1.43.54.77.54 1.83 1.21 1.06.66 2.48 1.2t3.41.54q3.04 0 4.71-1.44t1.67-4.15q0-1.51-.75-2.46-.76-.96-2-1.61-1.25-.64-2.84-1.09-1.59-.46-3.23-.99t-3.23-1.27-2.84-1.93-2-2.98q-.76-1.79-.76-4.42 0-2.09.84-4.08.83-1.98 2.42-3.52t3.93-2.47q2.33-.92 5.35-.92 3.39 0 6.25 1.06t4.88 2.97m11.02 17.99h12.35q0-1.27-.36-2.4-.35-1.13-1.07-1.97-.72-.85-1.81-1.34-1.1-.49-2.56-.49-2.84 0-4.47 1.61-1.63 1.62-2.08 4.59m16.7 3.95h-16.83q.16 2.09.74 3.61.58 1.53 1.54 2.52.95 1 2.26 1.49 1.32.49 2.91.49t2.74-.38q1.15-.37 2.01-.82t1.51-.82 1.26-.37q.82 0 1.22.61l1.88 2.39q-1.08 1.27-2.44 2.13-1.35.86-2.82 1.38-1.47.51-2.99.73-1.53.21-2.96.21-2.83 0-5.27-.94t-4.24-2.79q-1.8-1.84-2.84-4.55-1.03-2.72-1.03-6.3 0-2.78.9-5.23t2.59-4.27q1.68-1.81 4.1-2.87 2.43-1.06 5.48-1.06 2.57 0 4.74.82t3.74 2.4q1.56 1.57 2.45 3.87.88 2.29.88 5.23 0 1.48-.31 2-.32.52-1.22.52m12.21-12.78.4 3.08q1.27-2.44 3.02-3.83t4.14-1.39q1.88 0 3.02.82l-.43 4.9q-.13.48-.38.68t-.68.2q-.39 0-1.18-.14-.78-.13-1.52-.13-1.09 0-1.93.32-.85.32-1.53.91-.67.6-1.19 1.45t-.97 1.93v16.75h-6.54v-27.19h3.84q1.01 0 1.4.36.4.36.53 1.28m19.16 8.83h12.35q0-1.27-.36-2.4-.35-1.13-1.07-1.97-.71-.85-1.81-1.34t-2.56-.49q-2.84 0-4.47 1.61-1.63 1.62-2.08 4.59m16.7 3.95h-16.83q.16 2.09.74 3.61.59 1.53 1.54 2.52.95 1 2.27 1.49 1.31.49 2.9.49t2.74-.38q1.15-.37 2.01-.82.87-.45 1.51-.82.65-.37 1.26-.37.82 0 1.22.61l1.88 2.39q-1.08 1.27-2.43 2.13-1.36.86-2.83 1.38-1.47.51-2.99.73-1.52.21-2.96.21-2.83 0-5.27-.94t-4.24-2.79q-1.8-1.84-2.83-4.55-1.04-2.72-1.04-6.3 0-2.78.9-5.23t2.59-4.27q1.68-1.81 4.1-2.87 2.43-1.06 5.48-1.06 2.57 0 4.74.82t3.74 2.4q1.56 1.57 2.45 3.87.89 2.29.89 5.23 0 1.48-.32 2t-1.22.52m12.11-13.23.45 2.15q.82-.82 1.74-1.52.91-.71 1.93-1.2t2.19-.76q1.16-.28 2.54-.28 2.23 0 3.95.75 1.72.76 2.87 2.12 1.16 1.37 1.75 3.26.6 1.9.6 4.18v17.3h-6.55v-17.3q0-2.5-1.14-3.86t-3.47-1.36q-1.69 0-3.18.76-1.48.77-2.81 2.1v19.66h-6.54v-27.19h4q1.27 0 1.67 1.19m29.39 9.28h12.35q0-1.27-.36-2.4t-1.07-1.97q-.72-.85-1.82-1.34t-2.56-.49q-2.83 0-4.46 1.61-1.63 1.62-2.08 4.59m16.69 3.95h-16.83q.16 2.09.75 3.61.58 1.53 1.53 2.52.96 1 2.27 1.49t2.9.49 2.74-.38q1.16-.37 2.02-.82t1.51-.82 1.26-.37q.82 0 1.22.61l1.88 2.39q-1.09 1.27-2.44 2.13t-2.82 1.38q-1.47.51-3 .73-1.52.21-2.95.21-2.84 0-5.28-.94-2.43-.94-4.24-2.79-1.8-1.84-2.83-4.55-1.03-2.72-1.03-6.3 0-2.78.9-5.23t2.58-4.27q1.68-1.81 4.11-2.87 2.42-1.06 5.47-1.06 2.57 0 4.74.82 2.18.82 3.74 2.4 1.56 1.57 2.45 3.87.89 2.29.89 5.23 0 1.48-.32 2t-1.22.52m54.38-6.39q0 4.21-1.4 7.74-1.41 3.52-3.95 6.07-2.55 2.54-6.12 3.95-3.58 1.4-7.95 1.4h-14.61v-38.32h14.61q4.37 0 7.95 1.42 3.57 1.42 6.12 3.95 2.54 2.53 3.95 6.05 1.4 3.53 1.4 7.74m-7.31 0q0-3.15-.84-5.66-.83-2.5-2.41-4.24-1.58-1.73-3.82-2.66t-5.04-.93h-7.45v26.98h7.45q2.8 0 5.04-.93t3.82-2.66q1.58-1.74 2.41-4.24.84-2.51.84-5.66m19.1-20.22v15.11q1.59-1.49 3.5-2.42 1.91-.92 4.48-.92 2.23 0 3.95.75 1.72.76 2.87 2.12 1.16 1.37 1.75 3.26.6 1.9.6 4.18v17.3h-6.55v-17.3q0-2.5-1.14-3.86t-3.47-1.36q-1.69 0-3.18.76-1.48.77-2.81 2.1v19.66h-6.54V280.1zm37.71 32.36v-4.59q-2.83.14-4.77.49-1.93.36-3.1.92-1.16.55-1.67 1.3-.5.74-.5 1.61 0 1.73 1.02 2.47t2.66.74q2.02 0 3.49-.73t2.87-2.21m-13.83-14.29-1.17-2.09q4.69-4.29 11.29-4.29 2.39 0 4.27.78t3.18 2.17 1.97 3.33q.68 1.93.68 4.24v17.17h-2.97q-.93 0-1.43-.28t-.8-1.12l-.58-1.97q-1.03.93-2.01 1.63-.98.71-2.04 1.18-1.06.48-2.27.73-1.2.25-2.66.25-1.72 0-3.18-.46t-2.52-1.39-1.64-2.31q-.59-1.37-.59-3.2 0-1.04.35-2.06.34-1.02 1.13-1.94.78-.93 2.02-1.75 1.25-.82 3.06-1.43 1.82-.61 4.23-1 2.41-.38 5.51-.46v-1.59q0-2.73-1.16-4.04-1.17-1.31-3.37-1.31-1.59 0-2.64.37-1.04.37-1.84.83l-1.44.84q-.65.37-1.45.37-.69 0-1.16-.36-.48-.36-.77-.84m32.14-4.24.4 3.08q1.27-2.44 3.02-3.83t4.14-1.39q1.88 0 3.02.82l-.43 4.9q-.13.48-.38.68t-.68.2q-.39 0-1.18-.14-.78-.13-1.52-.13-1.09 0-1.93.32-.85.32-1.53.91-.67.6-1.19 1.45t-.97 1.93v16.75h-6.54v-27.19h3.84q1.01 0 1.4.36.4.36.53 1.28m28.36 18.53v-4.59q-2.84.14-4.77.49-1.94.36-3.1.92-1.17.55-1.67 1.3-.5.74-.5 1.61 0 1.73 1.02 2.47t2.66.74q2.01 0 3.48-.73t2.88-2.21m-13.83-14.29-1.17-2.09q4.69-4.29 11.29-4.29 2.38 0 4.27.78 1.88.78 3.18 2.17 1.29 1.39 1.97 3.33.68 1.93.68 4.24v17.17h-2.97q-.93 0-1.43-.28-.51-.28-.8-1.12l-.58-1.97q-1.04.93-2.02 1.63-.98.71-2.04 1.18-1.06.48-2.26.73-1.21.25-2.67.25-1.72 0-3.18-.46-1.45-.46-2.51-1.39t-1.65-2.31q-.58-1.37-.58-3.2 0-1.04.35-2.06.34-1.02 1.12-1.94.78-.93 2.03-1.75 1.24-.82 3.06-1.43t4.23-1q2.41-.38 5.51-.46v-1.59q0-2.73-1.17-4.04-1.16-1.31-3.36-1.31-1.59 0-2.64.37t-1.84.83q-.8.46-1.45.84-.64.37-1.44.37-.69 0-1.17-.36-.47-.36-.76-.84m32.91 21.31h-6.55v-27.19h4q1.28 0 1.67 1.19l.43 2.02q.71-.8 1.5-1.46.78-.66 1.67-1.14.88-.48 1.9-.75 1.02-.28 2.24-.28 2.57 0 4.23 1.39t2.48 3.7q.63-1.36 1.59-2.32.95-.97 2.09-1.58t2.43-.9q1.28-.29 2.58-.29 2.25 0 4 .69t2.94 2.01 1.82 3.23q.62 1.91.62 4.38v17.3h-6.55v-17.3q0-2.6-1.14-3.91-1.13-1.31-3.33-1.31-1.01 0-1.87.34t-1.51.99-1.02 1.63-.37 2.26v17.3h-6.58v-17.3q0-2.73-1.1-3.98-1.1-1.24-3.22-1.24-1.43 0-2.66.7t-2.29 1.92zm55.91-24.25-1.48 2.36q-.27.43-.56.6t-.74.17q-.48 0-1.02-.27-.54-.26-1.26-.59-.71-.33-1.63-.6-.91-.26-2.16-.26-1.93 0-3.03.82t-1.1 2.14q0 .88.57 1.48.57.59 1.51 1.04t2.13.81 2.43.78q1.23.43 2.42.97t2.14 1.38q.94.83 1.51 2 .57 1.16.57 2.81 0 1.96-.71 3.61-.7 1.66-2.08 2.87-1.38 1.2-3.4 1.88-2.03.67-4.68.67-1.4 0-2.74-.25t-2.57-.7q-1.24-.45-2.28-1.06-1.05-.61-1.84-1.33l1.51-2.49q.29-.45.69-.68.39-.24 1-.24t1.16.34q.54.35 1.25.74.72.4 1.69.75.96.34 2.45.34 1.16 0 2-.28.83-.28 1.38-.73.54-.45.79-1.04.25-.6.25-1.24 0-.95-.57-1.56t-1.51-1.06-2.14-.81q-1.21-.36-2.47-.78t-2.46-.99q-1.21-.57-2.15-1.45-.94-.87-1.51-2.14-.57-1.28-.57-3.08 0-1.67.66-3.18.67-1.51 1.95-2.64 1.29-1.12 3.21-1.8 1.92-.67 4.44-.67 2.81 0 5.11.92 2.31.93 3.84 2.44m11.77-15.13v15.11q1.59-1.49 3.5-2.42 1.91-.92 4.48-.92 2.22 0 3.94.75 1.73.76 2.88 2.12 1.15 1.37 1.75 3.26.6 1.9.6 4.18v17.3h-6.55v-17.3q0-2.5-1.14-3.86t-3.47-1.36q-1.7 0-3.18.76-1.49.77-2.81 2.1v19.66h-6.55V280.1zm37.71 32.36v-4.59q-2.84.14-4.77.49-1.94.36-3.1.92-1.17.55-1.67 1.3-.5.74-.5 1.61 0 1.73 1.02 2.47t2.66.74q2.01 0 3.48-.73t2.88-2.21m-13.83-14.29-1.17-2.09q4.69-4.29 11.29-4.29 2.38 0 4.27.78 1.88.78 3.18 2.17 1.29 1.39 1.97 3.33.68 1.93.68 4.24v17.17h-2.97q-.93 0-1.43-.28-.51-.28-.8-1.12l-.58-1.97q-1.03.93-2.02 1.63-.98.71-2.04 1.18-1.06.48-2.26.73-1.21.25-2.66.25-1.73 0-3.18-.46-1.46-.46-2.52-1.39t-1.65-2.31q-.58-1.37-.58-3.2 0-1.04.35-2.06.34-1.02 1.12-1.94.78-.93 2.03-1.75t3.06-1.43q1.82-.61 4.23-1 2.41-.38 5.51-.46v-1.59q0-2.73-1.17-4.04-1.16-1.31-3.36-1.31-1.59 0-2.64.37t-1.84.83q-.8.46-1.44.84-.65.37-1.45.37-.69 0-1.17-.36-.47-.36-.76-.84m26.44-18.07h6.55v39.38h-6.55zm27.46 32.36v-4.59q-2.84.14-4.77.49-1.94.36-3.1.92-1.17.55-1.67 1.3-.51.74-.51 1.61 0 1.73 1.02 2.47t2.67.74q2.01 0 3.48-.73t2.88-2.21m-13.84-14.29-1.16-2.09q4.69-4.29 11.29-4.29 2.38 0 4.26.78 1.89.78 3.18 2.17 1.3 1.39 1.98 3.33.67 1.93.67 4.24v17.17h-2.96q-.93 0-1.44-.28-.5-.28-.79-1.12l-.58-1.97q-1.04.93-2.02 1.63-.98.71-2.04 1.18-1.06.48-2.26.73-1.21.25-2.67.25-1.72 0-3.18-.46-1.45-.46-2.51-1.39t-1.65-2.31q-.58-1.37-.58-3.2 0-1.04.34-2.06.35-1.02 1.13-1.94.78-.93 2.03-1.75 1.24-.82 3.06-1.43 1.81-.61 4.23-1 2.41-.38 5.51-.46v-1.59q0-2.73-1.17-4.04-1.16-1.31-3.36-1.31-1.59 0-2.64.37t-1.84.83q-.8.46-1.45.84-.65.37-1.44.37-.69 0-1.17-.36-.47-.36-.77-.84"/></svg>