<svg xmlns="http://www.w3.org/2000/svg" width="800" height="600" viewBox="0 0 800 600"><rect width="100%" height="100%" fill="#0284c7"/><path fill="#ffffff" d="M187.5 280.255h-18.94v11.83h14.92v6.1h-14.92v12.07h18.94v6.34h-26.91v-42.66h26.91zm12.18 7.4.5 2.39q.92-.91 1.93-1.7 1.02-.78 2.16-1.32 1.13-.55 2.43-.86t2.83-.31q2.48 0 4.4.84t3.2 2.36 1.95 3.63q.66 2.11.66 4.65v19.26h-7.29v-19.26q0-2.78-1.27-4.3-1.26-1.52-3.86-1.52-1.89 0-3.54.86t-3.13 2.33v21.89h-7.28v-30.27h4.45q1.42 0 1.86 1.33m50.56 2.42-1.92 2.65q-.32.42-.63.65-.31.24-.9.24-.56 0-1.09-.34t-1.27-.77q-.74-.42-1.75-.76-1.02-.34-2.53-.34-1.91 0-3.36.69t-2.4 1.99q-.96 1.3-1.43 3.14-.48 1.85-.48 4.18 0 2.42.52 4.3.52 1.89 1.49 3.18.97 1.28 2.36 1.94 1.39.67 3.13.67t2.81-.43q1.08-.43 1.82-.95.74-.51 1.28-.94.55-.43 1.23-.43.88 0 1.32.68l2.1 2.66q-1.21 1.41-2.63 2.37-1.41.96-2.93 1.54-1.52.57-3.13.81-1.61.23-3.2.23-2.8 0-5.28-1.04-2.48-1.05-4.34-3.06-1.86-2-2.93-4.91-1.08-2.91-1.08-6.62 0-3.34.96-6.18.96-2.85 2.82-4.93 1.85-2.08 4.6-3.26 2.74-1.18 6.31-1.18 3.39 0 5.94 1.09 2.56 1.09 4.59 3.13m12.13-17.32v16.82q1.77-1.65 3.89-2.69 2.12-1.03 4.99-1.03 2.47 0 4.39.84t3.2 2.36q1.29 1.52 1.95 3.63t.66 4.65v19.26h-7.28v-19.26q0-2.78-1.27-4.3t-3.87-1.52q-1.88 0-3.54.86-1.65.86-3.12 2.33v21.89h-7.29v-43.84zm41.98 36.02v-5.1q-3.16.15-5.31.54-2.16.4-3.46 1.02-1.29.62-1.85 1.45-.57.82-.57 1.8 0 1.91 1.14 2.74t2.97.83q2.24 0 3.87-.81 1.64-.82 3.21-2.47m-15.4-15.9-1.3-2.33q5.22-4.78 12.57-4.78 2.65 0 4.74.87 2.1.87 3.54 2.42 1.45 1.55 2.2 3.7.75 2.16.75 4.72v19.12h-3.3q-1.03 0-1.59-.31t-.89-1.25l-.65-2.19q-1.15 1.04-2.24 1.82t-2.27 1.31-2.52.81-2.97.28q-1.91 0-3.54-.51-1.62-.52-2.8-1.55-1.18-1.04-1.83-2.57t-.65-3.57q0-1.15.39-2.29.38-1.13 1.25-2.16.87-1.04 2.26-1.95 1.38-.92 3.4-1.59 2.02-.68 4.71-1.11 2.68-.43 6.14-.52v-1.77q0-3.03-1.3-4.49-1.3-1.47-3.75-1.47-1.77 0-2.93.42-1.17.41-2.05.93-.89.51-1.61.93-.73.41-1.61.41-.77 0-1.3-.4t-.85-.93m35.66-5.22.5 2.39q.92-.91 1.94-1.7 1.01-.78 2.15-1.32 1.13-.55 2.43-.86t2.83-.31q2.48 0 4.4.84t3.2 2.36 1.95 3.63q.66 2.11.66 4.65v19.26h-7.28v-19.26q0-2.78-1.27-4.3t-3.87-1.52q-1.89 0-3.54.86t-3.12 2.33v21.89h-7.29v-30.27h4.45q1.42 0 1.86 1.33m37.05 29.41q-3.95 0-6.06-2.23-2.11-2.22-2.11-6.15v-16.9h-3.1q-.59 0-1-.38-.41-.39-.41-1.15v-2.89l4.87-.8 1.53-8.26q.15-.59.56-.92.41-.32 1.06-.32h3.78v9.53h8.08v5.19h-8.08v16.4q0 1.42.69 2.21.7.8 1.9.8.68 0 1.14-.16t.8-.34.6-.34q.27-.16.53-.16.33 0 .53.16.21.16.45.49l2.18 3.54q-1.59 1.32-3.66 2-2.06.68-4.28.68m12.1-30.74h7.31v30.27h-7.31zm8.32-8.82q0 .95-.39 1.77-.38.83-1.01 1.45-.64.62-1.49.99-.86.36-1.83.36-.95 0-1.79-.36-.84-.37-1.46-.99t-.99-1.45q-.36-.82-.36-1.77 0-.97.36-1.83.37-.85.99-1.47t1.46-.99 1.79-.37q.97 0 1.83.37.85.37 1.49.99.63.62 1.01 1.47.39.86.39 1.83m12.74 10.15.5 2.39q.92-.91 1.94-1.7 1.01-.78 2.15-1.32 1.13-.55 2.43-.86t2.83-.31q2.48 0 4.4.84t3.2 2.36 1.95 3.63q.66 2.11.66 4.65v19.26h-7.28v-19.26q0-2.78-1.27-4.3t-3.87-1.52q-1.89 0-3.54.86t-3.12 2.33v21.89h-7.29v-30.27h4.45q1.42 0 1.86 1.33m38.03 13.07q1.35 0 2.36-.37 1-.37 1.66-1.02.67-.65 1.01-1.56.34-.92.34-2.01 0-2.24-1.35-3.55-1.34-1.31-4.02-1.31-2.69 0-4.03 1.31t-1.34 3.55q0 1.06.34 1.98.34.91 1 1.58.66.66 1.68 1.03t2.35.37m8.23 17.23q0-.89-.53-1.45t-1.45-.87q-.91-.31-2.14-.46-1.22-.14-2.59-.22-1.38-.07-2.84-.13t-2.84-.24q-1.21.68-1.96 1.6-.76.91-.76 2.12 0 .8.4 1.49t1.27 1.2q.87.5 2.26.78 1.38.28 3.39.28 2.04 0 3.51-.31 1.48-.31 2.43-.86.96-.54 1.41-1.3.44-.75.44-1.63m-1.45-30.59h8.7v2.71q0 1.3-1.56 1.59l-2.71.5q.62 1.57.62 3.43 0 2.24-.9 4.05-.9 1.82-2.5 3.08-1.59 1.27-3.76 1.97-2.17.69-4.67.69-.89 0-1.71-.09-.83-.09-1.63-.23-1.41.85-1.41 1.91 0 .92.84 1.35.84.42 2.23.6 1.38.18 3.15.22 1.77.05 3.63.19 1.86.15 3.63.52t3.16 1.16q1.38.8 2.22 2.17t.84 3.53q0 2-.98 3.89-.99 1.89-2.87 3.37-1.87 1.47-4.6 2.37t-6.21.9q-3.42 0-5.96-.66-2.53-.67-4.22-1.77-1.68-1.11-2.5-2.56-.83-1.44-.83-3 0-2.13 1.28-3.56 1.29-1.43 3.53-2.29-1.21-.62-1.92-1.65t-.71-2.71q0-.68.25-1.4.26-.73.74-1.43.49-.71 1.23-1.35.73-.63 1.74-1.13-2.3-1.24-3.62-3.31-1.31-2.06-1.31-4.83 0-2.25.9-4.06t2.51-3.1q1.61-1.28 3.8-1.96 2.2-.68 4.8-.68 1.94 0 3.66.4 1.71.4 3.12 1.17m69.06-13.43h5.99v42.66h-6.99v-27.55q0-1.66.18-3.57l-12.9 24.22q-.91 1.74-2.8 1.74h-1.12q-1.89 0-2.8-1.74l-13.04-24.31q.09.97.15 1.92.06.94.06 1.74v27.55h-7v-42.66h5.99q.53 0 .92.03.38.03.69.15t.56.38q.25.27.49.71l12.77 23.69q.5.94.93 1.95.43 1 .84 2.06.41-1.09.86-2.11.44-1.02.94-1.96l12.6-23.63q.23-.44.5-.71.26-.26.57-.38t.7-.15q.38-.03.91-.03m30.33 34.84v-5.1q-3.16.15-5.31.54-2.16.4-3.45 1.02-1.3.62-1.86 1.45-.56.82-.56 1.8 0 1.91 1.13 2.74 1.14.83 2.97.83 2.24 0 3.88-.81 1.63-.82 3.2-2.47m-15.4-15.9-1.3-2.33q5.22-4.78 12.57-4.78 2.65 0 4.75.87 2.09.87 3.54 2.42 1.44 1.55 2.19 3.7.76 2.16.76 4.72v19.12h-3.31q-1.03 0-1.59-.31t-.88-1.25l-.65-2.19q-1.15 1.04-2.25 1.82-1.09.78-2.27 1.31t-2.52.81-2.96.28q-1.92 0-3.54-.51-1.63-.52-2.81-1.55-1.18-1.04-1.83-2.57-.64-1.53-.64-3.57 0-1.15.38-2.29.38-1.13 1.25-2.16.87-1.04 2.26-1.95 1.39-.92 3.41-1.59 2.02-.68 4.7-1.11 2.69-.43 6.14-.52v-1.77q0-3.03-1.3-4.49-1.3-1.47-3.75-1.47-1.77 0-2.93.42-1.17.41-2.05.93-.89.51-1.61.93-.72.41-1.61.41-.76 0-1.3-.4-.53-.4-.85-.93m35.66-5.22.51 2.39q.91-.91 1.93-1.7 1.02-.78 2.15-1.32 1.14-.55 2.44-.86 1.29-.31 2.83-.31 2.48 0 4.39.84 1.92.84 3.2 2.36 1.29 1.52 1.95 3.63t.66 4.65v19.26h-7.28v-19.26q0-2.78-1.27-4.3t-3.87-1.52q-1.88 0-3.54.86-1.65.86-3.12 2.33v21.89h-7.29v-30.27h4.46q1.41 0 1.85 1.33m42.96 21.12v-5.1q-3.16.15-5.31.54-2.16.4-3.46 1.02-1.29.62-1.85 1.45-.56.82-.56 1.8 0 1.91 1.13 2.74 1.14.83 2.97.83 2.24 0 3.88-.81 1.63-.82 3.2-2.47m-15.4-15.9-1.3-2.33q5.22-4.78 12.57-4.78 2.65 0 4.75.87 2.09.87 3.54 2.42 1.44 1.55 2.19 3.7.76 2.16.76 4.72v19.12h-3.31q-1.03 0-1.59-.31t-.89-1.25l-.65-2.19q-1.15 1.04-2.24 1.82t-2.27 1.31-2.52.81-2.97.28q-1.91 0-3.54-.51-1.62-.52-2.8-1.55-1.18-1.04-1.83-2.57t-.65-3.57q0-1.15.39-2.29.38-1.13 1.25-2.16.87-1.04 2.26-1.95 1.38-.92 3.4-1.59 2.03-.68 4.71-1.11t6.14-.52v-1.77q0-3.03-1.3-4.49-1.3-1.47-3.75-1.47-1.77 0-2.93.42-1.17.41-2.05.93-.89.51-1.61.93-.72.41-1.61.41-.77 0-1.3-.4t-.85-.93m29.44-20.12h7.28v43.84h-7.28zm14.81 13.57h7.31v30.27h-7.31zm8.32-8.82q0 .95-.39 1.77-.38.83-1.02 1.45-.63.62-1.48.99-.86.36-1.83.36-.95 0-1.79-.36-.84-.37-1.46-.99t-.99-1.45q-.37-.82-.37-1.77 0-.97.37-1.83.37-.85.99-1.47t1.46-.99 1.79-.37q.97 0 1.83.37.85.37 1.48.99.64.62 1.02 1.47.39.86.39 1.83"/></svg>