<svg xmlns="http://www.w3.org/2000/svg" width="120" height="120" viewBox="0 0 120 120"><rect width="100%" height="100%" fill="#38bdf8"/><path fill="#ffffff" d="M36.55 60.12h6.04q2.21 0 3.87-.56 1.65-.55 2.74-1.58 1.1-1.04 1.64-2.52.54-1.49.54-3.32 0-1.74-.54-3.15t-1.62-2.4-2.74-1.52q-1.64-.52-3.89-.52h-6.04zm-8.07-21.81h14.11q4.34 0 7.52 1.02 3.19 1.02 5.25 2.85 2.08 1.83 3.08 4.38 1.01 2.55 1.01 5.58 0 3.15-1.05 5.78-1.06 2.62-3.15 4.51-2.11 1.89-5.27 2.94t-7.39 1.05h-6.04v15.27h-8.07zm62.25 4.08-2 3.81q-.36.63-.77.92-.4.28-1 .28-.64 0-1.37-.46-.73-.47-1.75-1.04t-2.39-1.03q-1.36-.47-3.22-.47-1.68 0-2.94.41-1.26.4-2.12 1.12-.85.72-1.27 1.73-.42 1-.42 2.2 0 1.53.85 2.55.86 1.02 2.27 1.74t3.21 1.29 3.69 1.21q1.89.65 3.69 1.5 1.79.86 3.2 2.16 1.42 1.31 2.27 3.2.86 1.89.86 4.59 0 2.94-1.01 5.51-1.01 2.56-2.94 4.47-1.93 1.9-4.72 3-2.79 1.09-6.39 1.09-2.07 0-4.08-.41-2.01-.4-3.86-1.15-1.84-.75-3.46-1.8t-2.88-2.34l2.37-3.87q.3-.42.78-.7.48-.29 1.02-.29.75 0 1.62.62.87.61 2.07 1.36t2.8 1.37q1.61.61 3.86.61 3.44 0 5.34-1.63 1.89-1.64 1.89-4.7 0-1.71-.86-2.79-.85-1.08-2.26-1.81-1.42-.74-3.21-1.25-1.8-.51-3.66-1.11t-3.66-1.44-3.21-2.19-2.27-3.37q-.85-2.03-.85-5 0-2.37.94-4.62.95-2.25 2.75-3.99t4.44-2.79 6.06-1.05q3.84 0 7.08 1.2t5.51 3.36"/></svg>