<svg xmlns="http://www.w3.org/2000/svg" width="120" height="120" viewBox="0 0 120 120"><rect width="100%" height="100%" fill="#0ea5e9"/><path fill="#ffffff" d="M33.37 59.2h3.86q1.75 0 3.05-.44t2.14-1.21 1.25-1.83q.41-1.05.41-2.32 0-2.53-1.66-3.89-1.67-1.35-5.1-1.35h-3.95zm11.45 5.15 8.33 12.28h-5.59q-1.59 0-2.3-1.24l-6.99-10.65q-.4-.6-.87-.85t-1.39-.25h-2.64v12.99h-6.19V43.37h10.14q3.38 0 5.81.7t3.98 1.97 2.29 3.02q.73 1.76.73 3.88 0 1.68-.49 3.17-.5 1.5-1.43 2.72t-2.3 2.14-3.11 1.45q.59.34 1.1.81t.92 1.12m43.33-20.98h4.67v33.26h-5.45V55.15q0-1.29.14-2.79L77.46 71.25q-.72 1.35-2.19 1.35h-.87q-1.47 0-2.19-1.35L62.05 52.3q.07.76.11 1.49.05.74.05 1.36v21.48h-5.45V43.37h4.67q.41 0 .71.03.3.02.54.11t.44.3q.19.21.38.55l9.95 18.47q.4.74.73 1.52t.65 1.61q.33-.85.67-1.65.35-.79.74-1.53l9.82-18.42q.18-.34.39-.55t.45-.3.54-.11q.3-.03.71-.03"/></svg>