<svg xmlns="http://www.w3.org/2000/svg" width="800" height="600" viewBox="0 0 800 600"><rect width="100%" height="100%" fill="#0ea5e9"/><path fill="#ffffff" d="M174.765 292.24h7.14q3.23 0 5.64-.8 2.4-.81 3.95-2.23 1.55-1.43 2.31-3.38.77-1.96.77-4.3 0-4.67-3.08-7.18t-9.42-2.51h-7.31zm21.17 9.52 15.38 22.7h-10.32q-2.94 0-4.25-2.3l-12.92-19.67q-.73-1.11-1.6-1.58-.87-.46-2.57-.46h-4.89v24.01h-11.43V263h18.74q6.25 0 10.74 1.3 4.48 1.3 7.35 3.63 2.87 2.34 4.23 5.59t1.36 7.16q0 3.11-.92 5.87-.91 2.76-2.63 5.01-1.72 2.26-4.25 3.96t-5.76 2.67q1.1.64 2.04 1.51.93.87 1.7 2.06m39.69-21.59q4.85 0 8.82 1.58 3.98 1.57 6.8 4.46 2.83 2.89 4.36 7.05 1.53 4.17 1.53 9.31 0 5.19-1.53 9.35-1.53 4.17-4.36 7.1-2.82 2.93-6.8 4.5-3.97 1.58-8.82 1.58-4.88 0-8.88-1.58-3.99-1.57-6.82-4.5t-4.38-7.1q-1.55-4.16-1.55-9.35 0-5.14 1.55-9.31 1.55-4.16 4.38-7.05t6.82-4.46q4-1.58 8.88-1.58m0 36.85q5.44 0 8.06-3.65 2.61-3.66 2.61-10.71 0-7.06-2.61-10.75-2.62-3.7-8.06-3.7-5.52 0-8.18 3.72-2.65 3.71-2.65 10.73 0 7.01 2.65 10.69 2.66 3.67 8.18 3.67m60.74-36.17h8.41l-23.76 55.6q-.46 1.1-1.21 1.67-.74.58-2.27.58h-7.82l8.16-17.51-17.64-40.34h9.22q1.24 0 1.94.6.7.59 1.04 1.36l9.26 22.61q.47 1.15.79 2.29.32 1.15.62 2.34.38-1.19.76-2.36t.85-2.31l8.76-22.57q.34-.85 1.12-1.4.79-.56 1.77-.56m36.67 32.35v-7.36q-4.54.22-7.65.79-3.1.57-4.97 1.47-1.87.89-2.67 2.08-.81 1.19-.81 2.59 0 2.76 1.63 3.95 1.64 1.19 4.27 1.19 3.24 0 5.59-1.16 2.36-1.17 4.61-3.55m-22.18-22.91-1.87-3.36q7.52-6.88 18.11-6.88 3.82 0 6.84 1.25t5.1 3.49q2.08 2.23 3.16 5.33 1.09 3.1 1.09 6.8v27.54h-4.76q-1.49 0-2.3-.45-.8-.44-1.27-1.8l-.94-3.15q-1.65 1.49-3.23 2.62-1.57 1.12-3.27 1.89-1.7.76-3.63 1.17-1.94.4-4.27.4-2.77 0-5.11-.74-2.33-.75-4.03-2.24-1.7-1.48-2.64-3.69-.93-2.21-.93-5.15 0-1.65.55-3.29t1.81-3.12q1.25-1.49 3.25-2.81 1.99-1.32 4.91-2.29 2.91-.98 6.77-1.6 3.87-.61 8.84-.74v-2.55q0-4.38-1.87-6.48-1.86-2.11-5.39-2.11-2.55 0-4.23.6-1.68.59-2.96 1.34-1.27.74-2.31 1.34-1.04.59-2.32.59-1.1 0-1.87-.57-.76-.58-1.23-1.34m42.42-28.99h10.49v63.16h-10.49zm78.88 7.48-2.85 5.4q-.51.89-1.09 1.3-.57.4-1.42.4-.89 0-1.93-.66t-2.49-1.46q-1.44-.81-3.38-1.47-1.93-.66-4.57-.66-2.38 0-4.16.58-1.79.57-3 1.59t-1.8 2.44q-.6 1.43-.6 3.13 0 2.16 1.21 3.61 1.21 1.44 3.21 2.46t4.55 1.83 5.23 1.72q2.67.92 5.22 2.13t4.55 3.06 3.21 4.52q1.21 2.68 1.21 6.51 0 4.16-1.42 7.8-1.43 3.63-4.17 6.33t-6.69 4.25-9.05 1.55q-2.94 0-5.78-.57-2.85-.58-5.47-1.64-2.61-1.06-4.9-2.55-2.3-1.49-4.08-3.32l3.35-5.48q.43-.59 1.11-1 .68-.4 1.44-.4 1.07 0 2.3.87t2.93 1.93q1.7 1.07 3.97 1.94 2.28.87 5.47.87 4.88 0 7.56-2.32 2.68-2.31 2.68-6.65 0-2.42-1.21-3.95t-3.21-2.57-4.55-1.77q-2.55-.72-5.18-1.57-2.64-.85-5.19-2.04t-4.55-3.1q-1.99-1.91-3.21-4.78-1.21-2.87-1.21-7.08 0-3.36 1.34-6.54 1.34-3.19 3.89-5.66 2.55-2.46 6.29-3.95t8.59-1.49q5.44 0 10.03 1.7t7.82 4.76m19.89-7.48v24.23q2.55-2.38 5.61-3.87t7.18-1.49q3.57 0 6.33 1.22 2.76 1.21 4.61 3.4t2.81 5.22q.95 3.04.95 6.7v27.75h-10.49v-27.75q0-4-1.83-6.19t-5.57-2.19q-2.72 0-5.1 1.24-2.38 1.23-4.5 3.35v31.54h-10.5V261.3zm37.78 19.55h10.54v43.61h-10.54zm11.98-12.7q0 1.36-.55 2.55t-1.47 2.08q-.91.89-2.14 1.42t-2.64.53q-1.36 0-2.57-.53t-2.1-1.42-1.43-2.08q-.53-1.19-.53-2.55 0-1.41.53-2.64.54-1.23 1.43-2.12.89-.9 2.1-1.43t2.57-.53q1.41 0 2.64.53t2.14 1.43q.92.89 1.47 2.12t.55 2.64m19.77 56.31h-10.5v-43.61h6.42q2.04 0 2.67 1.92l.68 3.23q1.15-1.28 2.4-2.34 1.26-1.06 2.68-1.83 1.43-.76 3.06-1.21 1.64-.45 3.59-.45 4.13 0 6.78 2.24 2.66 2.23 3.98 5.92 1.02-2.16 2.55-3.71 1.53-1.56 3.35-2.53 1.83-.98 3.89-1.45t4.15-.47q3.61 0 6.41 1.11 2.81 1.1 4.72 3.23 1.91 2.12 2.91 5.18t1 7.02v27.75h-10.5v-27.75q0-4.17-1.82-6.27-1.83-2.11-5.36-2.11-1.61 0-3 .56-1.38.55-2.42 1.59t-1.63 2.61q-.6 1.58-.6 3.62v27.75h-10.54v-27.75q0-4.38-1.76-6.38-1.77-2-5.17-2-2.29 0-4.27 1.13-1.97 1.13-3.67 3.08zm60.81-63.16h10.5v63.16h-10.5zm44.03 51.9v-7.36q-4.54.22-7.65.79-3.1.57-4.97 1.47-1.87.89-2.68 2.08-.8 1.19-.8 2.59 0 2.76 1.63 3.95 1.64 1.19 4.27 1.19 3.23 0 5.59-1.16 2.36-1.17 4.61-3.55m-22.18-22.91-1.87-3.36q7.52-6.88 18.1-6.88 3.83 0 6.85 1.25 3.01 1.25 5.1 3.49 2.08 2.23 3.16 5.33 1.09 3.1 1.09 6.8v27.54h-4.76q-1.49 0-2.3-.45-.81-.44-1.27-1.8l-.94-3.15q-1.66 1.49-3.23 2.62-1.57 1.12-3.27 1.89-1.7.76-3.64 1.17-1.93.4-4.27.4-2.76 0-5.1-.74-2.33-.75-4.03-2.24-1.7-1.48-2.64-3.69-.93-2.21-.93-5.15 0-1.65.55-3.29t1.8-3.12q1.26-1.49 3.26-2.81 1.99-1.32 4.9-2.29 2.92-.98 6.78-1.6 3.87-.61 8.84-.74v-2.55q0-4.38-1.87-6.48-1.87-2.11-5.39-2.11-2.55 0-4.23.6-1.68.59-2.96 1.34-1.27.74-2.31 1.34-1.04.59-2.32.59-1.1 0-1.87-.57-.76-.58-1.23-1.34"/></svg>